<svg width="179" height="178" fill="none" xmlns="http://www.w3.org/2000/svg"><g filter="url(#a)"><path d="M53.25 170.25A88.91 88.91 0 1 0 125.17 7.62a88.91 88.91 0 0 0-71.92 162.63Z" fill="url(#b)"/></g><path d="M108.37 83.7c.82-5.54-3.34-8.52-9.03-10.5l1.84-7.5-4.5-1.13-1.8 7.3c-1.18-.3-2.4-.59-3.6-.87l1.8-7.34-4.5-1.14-1.84 7.5c-.98-.23-1.95-.46-2.88-.7v-.01l-6.2-1.58-1.2 4.88s3.34.77 3.27.82c1.82.46 2.15 1.69 2.1 2.66l-2.1 8.54c.12.03.28.07.46.15l-.47-.12-2.95 11.96c-.22.56-.79 1.4-2.06 1.09.04.06-3.28-.83-3.28-.83l-2.23 5.22 5.86 1.48 3.2.84-1.85 7.58 4.5 1.14 1.84-7.5c1.23.34 2.42.65 3.59.94l-1.84 7.47 4.5 1.14 1.87-7.57c7.68 1.47 13.46.88 15.89-6.16 1.96-5.67-.1-8.94-4.14-11.07 2.94-.69 5.16-2.65 5.75-6.7Zm-10.3 14.6c-1.38 5.67-10.8 2.6-13.86 1.84L86.7 90.1c3.05.77 12.84 2.3 11.39 8.21Zm1.4-14.7c-1.27 5.15-9.1 2.54-11.65 1.9l2.24-9.12c2.55.65 10.73 1.84 9.41 7.22Z" fill="url(#c)"/><defs><radialGradient id="b" cx="0" cy="0" r="1" gradientUnits="userSpaceOnUse" gradientTransform="matrix(-173.61288 21.96627 -19.96254 -157.77614 161.91 79.5)"><stop stop-color="#FF994F"/><stop offset=".72" stop-color="#EB6E53"/><stop offset=".9" stop-color="#DEFFFB"/></radialGradient><linearGradient id="c" x1="69.53" y1="71.41" x2="108.09" y2="115.61" gradientUnits="userSpaceOnUse"><stop stop-color="#6F3500" stop-opacity=".34"/><stop offset="1" stop-color="#B55700" stop-opacity="0"/></linearGradient><filter id="a" x=".28" y="0" width="177.87" height="177.87" filterUnits="userSpaceOnUse" color-interpolation-filters="sRGB"><feFlood flood-opacity="0" result="BackgroundImageFix"/><feBlend in="SourceGraphic" in2="BackgroundImageFix" result="shape"/><feColorMatrix in="SourceAlpha" values="0 0 0 0 0 0 0 0 0 0 0 0 0 0 0 0 0 0 127 0" result="hardAlpha"/><feOffset/><feGaussianBlur stdDeviation="12.62"/><feComposite in2="hardAlpha" operator="arithmetic" k2="-1" k3="1"/><feColorMatrix values="0 0 0 0 0.917667 0 0 0 0 0.683333 0 0 0 0 1 0 0 0 0.65 0"/><feBlend in2="shape" result="effect1_innerShadow_9_188"/></filter></defs></svg>